<svg version="1.2" xmlns="http://www.w3.org/2000/svg" viewBox="0 0 321 93" width="321" height="93">
	<title>file-svg</title>
	<style>
		.s0 { fill: #ffffff } 
	</style>
	<path id="Layer" class="s0" d="m178.2 70.1v-49.9h9.1v49.9z"/>
	<path id="Layer" class="s0" d="m101.6 21.6l19.2 48.5h7.4l19.4-48.5h-10l-13 34.1-12.8-34.1z"/>
	<path id="Layer" fill-rule="evenodd" class="s0" d="m142.5 62.2q-2.3-4-2.3-8.9 0-4.9 2.3-8.7 2.4-4 6.4-6.3 4.1-2.3 9.1-2.3 5.1 0 9.1 2.3 4.1 2.3 6.4 6.3 2.4 3.8 2.4 8.7 0 4.9-2.4 8.9-2.3 4-6.4 6.3-4 2.3-9 2.3-5.1 0-9.2-2.3-4-2.3-6.4-6.3zm23-4.1q1.1-2.1 1.1-4.7 0-2.6-1.1-4.6-1.1-2-3-3.1-2-1.2-4.5-1.2-2.5 0-4.4 1.2-2 1.1-3.1 3.1-1.1 2-1.1 4.6 0 2.6 1.1 4.7 1.1 2 3.1 3.2 1.9 1.1 4.4 1.1 2.5 0 4.5-1.1 2-1.2 3-3.2z"/>
	<path id="Layer" class="s0" d="m198.2 68.9q3.5 1.9 7.9 1.9 4.4 0 7.8-1.8 3.4-1.8 5.3-5.2 1.9-3.3 1.9-7.7v-19.3h-9v19.1q0 3.1-1.6 4.8-1.6 1.8-4.4 1.8-1.9 0-3.3-0.8-1.3-0.8-2-2.2-0.7-1.5-0.7-3.6v-19.1h-9.1v19.3q0 4.4 1.9 7.7 1.9 3.3 5.3 5.1z"/>
	<path id="Layer" class="s0" d="m224.9 70.1v-33.3h9v2.9q1.3-1.2 2.8-2 2.9-1.6 6.6-1.6 3.4 0 6.3 1.6 2.3 1.2 3.9 3.4 1.7-2.1 4.1-3.4 3-1.6 6.7-1.6 3.8 0 6.7 1.6 3 1.5 4.7 4.4 1.8 2.9 1.8 6.9v21.1h-9.1v-19.7q0-2.9-1.8-4.5-1.8-1.6-4.5-1.6-1.8 0-3.3 0.7-1.4 0.7-2.3 2.1-0.8 1.4-0.8 3.3v19.7h-9v-19.7q0-2.9-1.9-4.5-1.8-1.6-4.5-1.6-1.8 0-3.2 0.7-1.5 0.7-2.3 2.1-0.9 1.4-0.9 3.3v19.7z"/>
	<path id="Layer" fill-rule="evenodd" class="s0" d="m281.5 62.4q-2.4-4-2.4-9 0-5 2.3-8.8 2.4-4 6.4-6.3 4-2.3 8.9-2.3 4.8 0 8.5 2.2 3.7 2.2 5.8 6 2.1 3.7 2.1 8.4 0 0.9-0.1 1.9-0.1 0.9-0.4 2.1h-24.4q0.3 1.1 0.7 2 1.2 2.2 3.4 3.4 2.1 1.2 4.9 1.2 2.6 0 4.7-0.8 2-0.9 3.6-2.6l5.3 5.3q-2.4 2.8-6 4.3-3.4 1.4-7.5 1.4-5.2 0-9.3-2.2-4.1-2.3-6.5-6.2zm22.9-12.6q-0.3-1.2-0.7-2.1-0.9-2-2.7-3.1-1.8-1.1-4.3-1.1-2.7 0-4.7 1.3-2 1.1-3.1 3.4-0.4 0.8-0.7 1.7z"/>
	<path id="Layer" fill-rule="evenodd" class="s0" d="m4 48.2c0-23.3 18.8-42.1 42-42.1 23.2 0 42.1 18.8 42.1 42.1 0 23.2-18.9 42-42.1 42-23.2 0-42-18.8-42-42zm57.6-26.3l-26.6 4.5c-1.1 0.2-1.9 1.1-1.9 2.2v8.3 0.1 0.6 20.6c-1.3-0.8-2.8-1.2-4.4-1.2-4.9 0-8.9 4-8.9 8.9 0 4.9 4 8.9 8.9 8.9 4.9 0 8.9-4 8.9-8.9v-26.4l22.2-3.8v18.1c-1.3-0.8-2.8-1.2-4.5-1.2-4.9 0-8.9 3.9-8.9 8.9 0 4.9 4 8.8 8.9 8.8 4.9 0 8.9-3.9 8.9-8.8v-28.3-0.1-0.5-8.5c0-0.6-0.3-1.3-0.8-1.7-0.5-0.4-1.1-0.6-1.8-0.5z"/>
</svg>